<mxfile host="app.diagrams.net" modified="2024-07-05T17:24:05.800Z" agent="Mozilla/5.0 (Macintosh; Intel Mac OS X 10_15_7) AppleWebKit/537.36 (KHTML, like Gecko) Chrome/124.0.0.0 Safari/537.36" etag="wc2VXQoRZoTomz6-Emrd" version="23.1.6" type="github">
  <diagram id="C5RBs43oDa-KdzZeNtuy" name="Page-1">
    <mxGraphModel dx="1242" dy="819" grid="1" gridSize="10" guides="1" tooltips="1" connect="1" arrows="1" fold="1" page="1" pageScale="1" pageWidth="827" pageHeight="1169" math="0" shadow="0">
      <root>
        <mxCell id="WIyWlLk6GJQsqaUBKTNV-0" />
        <mxCell id="WIyWlLk6GJQsqaUBKTNV-1" parent="WIyWlLk6GJQsqaUBKTNV-0" />
        <mxCell id="HYt0IJZWDuOluA7Cggaj-13" style="edgeStyle=orthogonalEdgeStyle;rounded=0;orthogonalLoop=1;jettySize=auto;html=1;exitX=0;exitY=0.5;exitDx=0;exitDy=0;entryX=0;entryY=0.5;entryDx=0;entryDy=0;dashed=1;" edge="1" parent="WIyWlLk6GJQsqaUBKTNV-1" source="HYt0IJZWDuOluA7Cggaj-2" target="HYt0IJZWDuOluA7Cggaj-11">
          <mxGeometry relative="1" as="geometry" />
        </mxCell>
        <mxCell id="HYt0IJZWDuOluA7Cggaj-14" style="edgeStyle=orthogonalEdgeStyle;rounded=0;orthogonalLoop=1;jettySize=auto;html=1;exitX=0.5;exitY=0;exitDx=0;exitDy=0;" edge="1" parent="WIyWlLk6GJQsqaUBKTNV-1" source="HYt0IJZWDuOluA7Cggaj-2" target="HYt0IJZWDuOluA7Cggaj-10">
          <mxGeometry relative="1" as="geometry" />
        </mxCell>
        <mxCell id="HYt0IJZWDuOluA7Cggaj-2" value="&lt;b&gt;&lt;font style=&quot;font-size: 14px;&quot;&gt;Theater&lt;/font&gt;&lt;/b&gt;" style="rounded=0;whiteSpace=wrap;html=1;" vertex="1" parent="WIyWlLk6GJQsqaUBKTNV-1">
          <mxGeometry x="160" y="520" width="160" height="30" as="geometry" />
        </mxCell>
        <mxCell id="HYt0IJZWDuOluA7Cggaj-4" value="&lt;meta charset=&quot;utf-8&quot;&gt;&lt;span style=&quot;color: rgb(0, 0, 0); font-family: Helvetica; font-size: 12px; font-style: normal; font-variant-ligatures: normal; font-variant-caps: normal; font-weight: 400; letter-spacing: normal; orphans: 2; text-align: left; text-indent: 0px; text-transform: none; widows: 2; word-spacing: 0px; -webkit-text-stroke-width: 0px; background-color: rgb(251, 251, 251); text-decoration-thickness: initial; text-decoration-style: initial; text-decoration-color: initial; float: none; display: inline !important;&quot;&gt;enter(audience)&lt;/span&gt;" style="rounded=0;whiteSpace=wrap;html=1;" vertex="1" parent="WIyWlLk6GJQsqaUBKTNV-1">
          <mxGeometry x="160" y="550" width="160" height="30" as="geometry" />
        </mxCell>
        <mxCell id="HYt0IJZWDuOluA7Cggaj-15" style="edgeStyle=orthogonalEdgeStyle;rounded=0;orthogonalLoop=1;jettySize=auto;html=1;exitX=0.25;exitY=0;exitDx=0;exitDy=0;entryX=0.25;entryY=1;entryDx=0;entryDy=0;dashed=1;" edge="1" parent="WIyWlLk6GJQsqaUBKTNV-1" source="HYt0IJZWDuOluA7Cggaj-9" target="HYt0IJZWDuOluA7Cggaj-12">
          <mxGeometry relative="1" as="geometry" />
        </mxCell>
        <mxCell id="HYt0IJZWDuOluA7Cggaj-20" style="edgeStyle=orthogonalEdgeStyle;rounded=0;orthogonalLoop=1;jettySize=auto;html=1;exitX=0.75;exitY=0;exitDx=0;exitDy=0;entryX=0;entryY=0.25;entryDx=0;entryDy=0;dashed=1;" edge="1" parent="WIyWlLk6GJQsqaUBKTNV-1" source="HYt0IJZWDuOluA7Cggaj-9" target="HYt0IJZWDuOluA7Cggaj-18">
          <mxGeometry relative="1" as="geometry" />
        </mxCell>
        <mxCell id="HYt0IJZWDuOluA7Cggaj-31" style="edgeStyle=orthogonalEdgeStyle;rounded=0;orthogonalLoop=1;jettySize=auto;html=1;exitX=1;exitY=0.5;exitDx=0;exitDy=0;entryX=0;entryY=0.5;entryDx=0;entryDy=0;" edge="1" parent="WIyWlLk6GJQsqaUBKTNV-1" source="HYt0IJZWDuOluA7Cggaj-9" target="HYt0IJZWDuOluA7Cggaj-28">
          <mxGeometry relative="1" as="geometry" />
        </mxCell>
        <mxCell id="HYt0IJZWDuOluA7Cggaj-9" value="&lt;b&gt;&lt;font style=&quot;font-size: 14px;&quot;&gt;TicketSeller&lt;/font&gt;&lt;/b&gt;" style="rounded=0;whiteSpace=wrap;html=1;" vertex="1" parent="WIyWlLk6GJQsqaUBKTNV-1">
          <mxGeometry x="160" y="280" width="160" height="30" as="geometry" />
        </mxCell>
        <mxCell id="HYt0IJZWDuOluA7Cggaj-33" style="edgeStyle=orthogonalEdgeStyle;rounded=0;orthogonalLoop=1;jettySize=auto;html=1;exitX=0.75;exitY=1;exitDx=0;exitDy=0;entryX=1;entryY=0.5;entryDx=0;entryDy=0;dashed=1;" edge="1" parent="WIyWlLk6GJQsqaUBKTNV-1" source="HYt0IJZWDuOluA7Cggaj-10" target="HYt0IJZWDuOluA7Cggaj-25">
          <mxGeometry relative="1" as="geometry">
            <Array as="points">
              <mxPoint x="280" y="500" />
              <mxPoint x="820" y="500" />
              <mxPoint x="820" y="255" />
            </Array>
          </mxGeometry>
        </mxCell>
        <mxCell id="HYt0IJZWDuOluA7Cggaj-10" value="&lt;span style=&quot;font-family: Helvetica; font-size: 12px; font-style: normal; font-variant-ligatures: normal; font-variant-caps: normal; font-weight: 400; letter-spacing: normal; orphans: 2; text-align: left; text-indent: 0px; text-transform: none; widows: 2; word-spacing: 0px; -webkit-text-stroke-width: 0px; background-color: rgb(251, 251, 251); text-decoration-thickness: initial; text-decoration-style: initial; text-decoration-color: initial; float: none; display: inline !important;&quot;&gt;&lt;font color=&quot;#ff3333&quot;&gt;sellTo(audience)&lt;/font&gt;&lt;/span&gt;" style="rounded=0;whiteSpace=wrap;html=1;" vertex="1" parent="WIyWlLk6GJQsqaUBKTNV-1">
          <mxGeometry x="160" y="310" width="160" height="30" as="geometry" />
        </mxCell>
        <mxCell id="HYt0IJZWDuOluA7Cggaj-21" style="edgeStyle=orthogonalEdgeStyle;rounded=0;orthogonalLoop=1;jettySize=auto;html=1;exitX=1;exitY=0.5;exitDx=0;exitDy=0;" edge="1" parent="WIyWlLk6GJQsqaUBKTNV-1" source="HYt0IJZWDuOluA7Cggaj-11" target="HYt0IJZWDuOluA7Cggaj-16">
          <mxGeometry relative="1" as="geometry" />
        </mxCell>
        <mxCell id="HYt0IJZWDuOluA7Cggaj-11" value="&lt;b&gt;&lt;font style=&quot;font-size: 14px;&quot;&gt;Audience&lt;/font&gt;&lt;/b&gt;" style="rounded=0;whiteSpace=wrap;html=1;" vertex="1" parent="WIyWlLk6GJQsqaUBKTNV-1">
          <mxGeometry x="160" y="160" width="160" height="30" as="geometry" />
        </mxCell>
        <mxCell id="HYt0IJZWDuOluA7Cggaj-12" value="&lt;span style=&quot;color: rgb(0, 0, 0); font-family: Helvetica; font-size: 12px; font-style: normal; font-variant-ligatures: normal; font-variant-caps: normal; font-weight: 400; letter-spacing: normal; orphans: 2; text-align: left; text-indent: 0px; text-transform: none; widows: 2; word-spacing: 0px; -webkit-text-stroke-width: 0px; background-color: rgb(251, 251, 251); text-decoration-thickness: initial; text-decoration-style: initial; text-decoration-color: initial; float: none; display: inline !important;&quot;&gt;getBag()&lt;/span&gt;" style="rounded=0;whiteSpace=wrap;html=1;" vertex="1" parent="WIyWlLk6GJQsqaUBKTNV-1">
          <mxGeometry x="160" y="190" width="160" height="30" as="geometry" />
        </mxCell>
        <mxCell id="HYt0IJZWDuOluA7Cggaj-24" style="edgeStyle=orthogonalEdgeStyle;rounded=0;orthogonalLoop=1;jettySize=auto;html=1;exitX=1;exitY=0.5;exitDx=0;exitDy=0;entryX=0;entryY=0.5;entryDx=0;entryDy=0;" edge="1" parent="WIyWlLk6GJQsqaUBKTNV-1" source="HYt0IJZWDuOluA7Cggaj-16" target="HYt0IJZWDuOluA7Cggaj-22">
          <mxGeometry relative="1" as="geometry" />
        </mxCell>
        <mxCell id="HYt0IJZWDuOluA7Cggaj-16" value="&lt;b&gt;&lt;font style=&quot;font-size: 14px;&quot;&gt;&amp;nbsp;Bag&lt;/font&gt;&lt;/b&gt;" style="rounded=0;whiteSpace=wrap;html=1;" vertex="1" parent="WIyWlLk6GJQsqaUBKTNV-1">
          <mxGeometry x="400" y="160" width="160" height="30" as="geometry" />
        </mxCell>
        <mxCell id="HYt0IJZWDuOluA7Cggaj-17" value="&lt;div style=&quot;text-align: left;&quot;&gt;&lt;span style=&quot;background-color: initial;&quot;&gt;amount&lt;/span&gt;&lt;/div&gt;" style="rounded=0;whiteSpace=wrap;html=1;" vertex="1" parent="WIyWlLk6GJQsqaUBKTNV-1">
          <mxGeometry x="400" y="190" width="160" height="30" as="geometry" />
        </mxCell>
        <mxCell id="HYt0IJZWDuOluA7Cggaj-36" style="edgeStyle=orthogonalEdgeStyle;rounded=0;orthogonalLoop=1;jettySize=auto;html=1;entryX=0;entryY=0.75;entryDx=0;entryDy=0;" edge="1" parent="WIyWlLk6GJQsqaUBKTNV-1" source="HYt0IJZWDuOluA7Cggaj-18" target="HYt0IJZWDuOluA7Cggaj-25">
          <mxGeometry relative="1" as="geometry" />
        </mxCell>
        <mxCell id="HYt0IJZWDuOluA7Cggaj-18" value="&lt;div style=&quot;text-align: left;&quot;&gt;hasInvitation()&lt;/div&gt;&lt;div style=&quot;text-align: left;&quot;&gt;hasTicket()&lt;/div&gt;&lt;div style=&quot;text-align: left;&quot;&gt;setTicket(ticket)&lt;/div&gt;&lt;div style=&quot;text-align: left;&quot;&gt;minusAmount(amount)&lt;/div&gt;&lt;div style=&quot;text-align: left;&quot;&gt;plusAmount(amount)&lt;/div&gt;" style="rounded=0;whiteSpace=wrap;html=1;" vertex="1" parent="WIyWlLk6GJQsqaUBKTNV-1">
          <mxGeometry x="400" y="220" width="160" height="100" as="geometry" />
        </mxCell>
        <mxCell id="HYt0IJZWDuOluA7Cggaj-22" value="&lt;b&gt;&lt;font style=&quot;font-size: 14px;&quot;&gt;Invitation&lt;/font&gt;&lt;/b&gt;" style="rounded=0;whiteSpace=wrap;html=1;" vertex="1" parent="WIyWlLk6GJQsqaUBKTNV-1">
          <mxGeometry x="640" y="160" width="160" height="30" as="geometry" />
        </mxCell>
        <mxCell id="HYt0IJZWDuOluA7Cggaj-23" value="&lt;span style=&quot;color: rgb(0, 0, 0); font-family: Helvetica; font-size: 12px; font-style: normal; font-variant-ligatures: normal; font-variant-caps: normal; font-weight: 400; letter-spacing: normal; orphans: 2; text-align: left; text-indent: 0px; text-transform: none; widows: 2; word-spacing: 0px; -webkit-text-stroke-width: 0px; background-color: rgb(251, 251, 251); text-decoration-thickness: initial; text-decoration-style: initial; text-decoration-color: initial; float: none; display: inline !important;&quot;&gt;when&lt;/span&gt;" style="rounded=0;whiteSpace=wrap;html=1;" vertex="1" parent="WIyWlLk6GJQsqaUBKTNV-1">
          <mxGeometry x="640" y="190" width="160" height="30" as="geometry" />
        </mxCell>
        <mxCell id="HYt0IJZWDuOluA7Cggaj-25" value="&lt;b&gt;&lt;font style=&quot;font-size: 14px;&quot;&gt;Ticket&lt;/font&gt;&lt;/b&gt;" style="rounded=0;whiteSpace=wrap;html=1;" vertex="1" parent="WIyWlLk6GJQsqaUBKTNV-1">
          <mxGeometry x="640" y="230" width="160" height="30" as="geometry" />
        </mxCell>
        <mxCell id="HYt0IJZWDuOluA7Cggaj-26" value="&lt;span style=&quot;color: rgb(0, 0, 0); font-family: Helvetica; font-size: 12px; font-style: normal; font-variant-ligatures: normal; font-variant-caps: normal; font-weight: 400; letter-spacing: normal; orphans: 2; text-align: left; text-indent: 0px; text-transform: none; widows: 2; word-spacing: 0px; -webkit-text-stroke-width: 0px; background-color: rgb(251, 251, 251); text-decoration-thickness: initial; text-decoration-style: initial; text-decoration-color: initial; float: none; display: inline !important;&quot;&gt;fee&lt;/span&gt;" style="rounded=0;whiteSpace=wrap;html=1;" vertex="1" parent="WIyWlLk6GJQsqaUBKTNV-1">
          <mxGeometry x="640" y="260" width="160" height="30" as="geometry" />
        </mxCell>
        <mxCell id="HYt0IJZWDuOluA7Cggaj-27" value="&lt;span style=&quot;color: rgb(0, 0, 0); font-family: Helvetica; font-size: 12px; font-style: normal; font-variant-ligatures: normal; font-variant-caps: normal; font-weight: 400; letter-spacing: normal; orphans: 2; text-align: left; text-indent: 0px; text-transform: none; widows: 2; word-spacing: 0px; -webkit-text-stroke-width: 0px; background-color: rgb(251, 251, 251); text-decoration-thickness: initial; text-decoration-style: initial; text-decoration-color: initial; float: none; display: inline !important;&quot;&gt;getFee()&lt;/span&gt;" style="rounded=0;whiteSpace=wrap;html=1;" vertex="1" parent="WIyWlLk6GJQsqaUBKTNV-1">
          <mxGeometry x="640" y="290" width="160" height="30" as="geometry" />
        </mxCell>
        <mxCell id="HYt0IJZWDuOluA7Cggaj-34" style="edgeStyle=orthogonalEdgeStyle;rounded=0;orthogonalLoop=1;jettySize=auto;html=1;exitX=1;exitY=0.5;exitDx=0;exitDy=0;entryX=0.5;entryY=1;entryDx=0;entryDy=0;" edge="1" parent="WIyWlLk6GJQsqaUBKTNV-1" source="HYt0IJZWDuOluA7Cggaj-28" target="HYt0IJZWDuOluA7Cggaj-27">
          <mxGeometry relative="1" as="geometry">
            <mxPoint x="720" y="330" as="targetPoint" />
          </mxGeometry>
        </mxCell>
        <mxCell id="HYt0IJZWDuOluA7Cggaj-28" value="&lt;b&gt;&lt;font style=&quot;font-size: 14px;&quot;&gt;TicketOffice&lt;/font&gt;&lt;/b&gt;" style="rounded=0;whiteSpace=wrap;html=1;" vertex="1" parent="WIyWlLk6GJQsqaUBKTNV-1">
          <mxGeometry x="400" y="360" width="160" height="30" as="geometry" />
        </mxCell>
        <mxCell id="HYt0IJZWDuOluA7Cggaj-29" value="&lt;span style=&quot;color: rgb(0, 0, 0); font-family: Helvetica; font-size: 12px; font-style: normal; font-variant-ligatures: normal; font-variant-caps: normal; font-weight: 400; letter-spacing: normal; orphans: 2; text-align: left; text-indent: 0px; text-transform: none; widows: 2; word-spacing: 0px; -webkit-text-stroke-width: 0px; background-color: rgb(251, 251, 251); text-decoration-thickness: initial; text-decoration-style: initial; text-decoration-color: initial; float: none; display: inline !important;&quot;&gt;amount&lt;/span&gt;" style="rounded=0;whiteSpace=wrap;html=1;" vertex="1" parent="WIyWlLk6GJQsqaUBKTNV-1">
          <mxGeometry x="400" y="390" width="160" height="30" as="geometry" />
        </mxCell>
        <mxCell id="HYt0IJZWDuOluA7Cggaj-30" value="&lt;span style=&quot;color: rgb(0, 0, 0); font-family: Helvetica; font-size: 12px; font-style: normal; font-variant-ligatures: normal; font-variant-caps: normal; font-weight: 400; letter-spacing: normal; orphans: 2; text-align: left; text-indent: 0px; text-transform: none; widows: 2; word-spacing: 0px; -webkit-text-stroke-width: 0px; background-color: rgb(251, 251, 251); text-decoration-thickness: initial; text-decoration-style: initial; text-decoration-color: initial; float: none; display: inline !important;&quot;&gt;getTicket()&lt;br&gt;minusAmount(amount)&lt;br&gt;plusAmount(amount)&lt;br&gt;&lt;/span&gt;" style="rounded=0;whiteSpace=wrap;html=1;" vertex="1" parent="WIyWlLk6GJQsqaUBKTNV-1">
          <mxGeometry x="400" y="420" width="160" height="60" as="geometry" />
        </mxCell>
      </root>
    </mxGraphModel>
  </diagram>
</mxfile>
